<?xml version="1.0" encoding="UTF-8"?>
<svg version="1.1" xmlns="http://www.w3.org/2000/svg" width="285" height="284">
<path d="M0 0 C0.68868164 0.17160645 1.37736328 0.34321289 2.08691406 0.52001953 C12.64849722 3.17823176 22.3497294 6.9760301 32 12 C32.66950684 12.34579102 33.33901367 12.69158203 34.02880859 13.04785156 C43.18874945 17.83350606 51.25737108 23.08822861 59 30 C59.83917969 30.71929687 60.67835938 31.43859375 61.54296875 32.1796875 C83.64179527 51.43478905 99.41704062 77.37843748 106 106 C106.16081055 106.65871094 106.32162109 107.31742187 106.48730469 107.99609375 C115.13598507 144.58803632 107.03172634 183.129083 88 215 C76.53379981 233.24812754 61.09972163 248.38094347 43 260 C41.94296875 260.680625 40.8859375 261.36125 39.796875 262.0625 C8.93774335 280.78273152 -31.33230638 286.7175196 -66.453125 278.2578125 C-104.93238761 267.94327779 -137.69097661 243.94199734 -157.6875 209.3125 C-177.00307001 174.49042642 -180.66635358 134.69032364 -169.76171875 96.5546875 C-158.59571361 60.01483313 -132.47616649 29.89479437 -98.98046875 12 C-88.84180436 6.78823604 -78.01950977 2.87632216 -67 0 C-65.86820312 -0.30035156 -64.73640625 -0.60070312 -63.5703125 -0.91015625 C-43.74781621 -5.26786249 -19.62567553 -5.16574335 0 0 Z " fill="#FEFEFE" transform="translate(176,3)"/>
<path d="M0 0 C0.68868164 0.17160645 1.37736328 0.34321289 2.08691406 0.52001953 C12.64849722 3.17823176 22.3497294 6.9760301 32 12 C32.66950684 12.34579102 33.33901367 12.69158203 34.02880859 13.04785156 C43.18874945 17.83350606 51.25737108 23.08822861 59 30 C59.83917969 30.71929687 60.67835938 31.43859375 61.54296875 32.1796875 C83.64179527 51.43478905 99.41704062 77.37843748 106 106 C106.16081055 106.65871094 106.32162109 107.31742187 106.48730469 107.99609375 C115.13598507 144.58803632 107.03172634 183.129083 88 215 C76.53379981 233.24812754 61.09972163 248.38094347 43 260 C41.94296875 260.680625 40.8859375 261.36125 39.796875 262.0625 C8.93774335 280.78273152 -31.33230638 286.7175196 -66.453125 278.2578125 C-104.93238761 267.94327779 -137.69097661 243.94199734 -157.6875 209.3125 C-177.00307001 174.49042642 -180.66635358 134.69032364 -169.76171875 96.5546875 C-158.59571361 60.01483313 -132.47616649 29.89479437 -98.98046875 12 C-88.84180436 6.78823604 -78.01950977 2.87632216 -67 0 C-65.86820312 -0.30035156 -64.73640625 -0.60070312 -63.5703125 -0.91015625 C-43.74781621 -5.26786249 -19.62567553 -5.16574335 0 0 Z M-69 9 C-69.66692871 9.18191895 -70.33385742 9.36383789 -71.02099609 9.55126953 C-102.26754848 18.26417562 -130.00520015 39.55264626 -147 67 C-147.52078125 67.79664063 -148.0415625 68.59328125 -148.578125 69.4140625 C-154.93155709 79.41235826 -159.43145098 90.42804436 -162.8125 101.75 C-163.007229 102.39783447 -163.20195801 103.04566895 -163.40258789 103.71313477 C-166.66248345 115.22970988 -167.41045 126.66262598 -167.375 138.5625 C-167.3737915 139.31389252 -167.37258301 140.06528503 -167.37133789 140.83944702 C-167.31997068 152.6221133 -166.67192008 163.73287342 -163 175 C-162.73155273 175.83208984 -162.46310547 176.66417969 -162.18652344 177.52148438 C-156.58020258 194.37148971 -148.93693873 210.6875156 -137 224 C-135.88625 225.27423828 -135.88625 225.27423828 -134.75 226.57421875 C-132.531895 229.08082728 -130.27522216 231.5452649 -128 234 C-127.47277344 234.59296875 -126.94554687 235.1859375 -126.40234375 235.796875 C-105.84297728 257.88110497 -73.03299666 271.38037602 -43.31054688 273.16113281 C-9.77239537 274.33437557 22.49163104 266.37340458 49 245 C49.5779834 244.54399414 50.1559668 244.08798828 50.75146484 243.61816406 C78.08604058 221.90844651 95.35628473 190.53437641 100.375 156 C101.90930749 140.41966105 101.54753324 125.26639305 98 110 C97.85014648 109.34273926 97.70029297 108.68547852 97.54589844 108.00830078 C92.79732753 87.63783895 83.46524129 68.96196591 70 53 C69.25878906 52.11828125 68.51757812 51.2365625 67.75390625 50.328125 C48.27745574 27.9701319 22.06982472 12.84097524 -7 7 C-7.68610352 6.83081055 -8.37220703 6.66162109 -9.07910156 6.48730469 C-16.80617136 4.69575263 -24.473115 4.60315786 -32.375 4.625 C-33.43314407 4.62531723 -33.43314407 4.62531723 -34.51266479 4.62564087 C-46.38190618 4.66107345 -57.55430997 5.7416597 -69 9 Z " fill="#747272" transform="translate(176,3)"/>
<path d="M0 0 C3.3737101 2.05056357 6.22043124 4.44086248 8 8 C8.34375 10.1015625 8.34375 10.1015625 8.5 12.625 C8.5721875 13.44226563 8.644375 14.25953125 8.71875 15.1015625 C6.51589617 23.98481002 -4.63399554 31.78244228 -11.03808594 38.18334961 C-12.24625618 39.39451684 -13.4542228 40.60588723 -14.66200256 41.81744385 C-17.92166203 45.08588468 -21.1845086 48.35112529 -24.44824123 51.6154983 C-26.48795857 53.65592857 -28.52696136 55.6970701 -30.56571198 57.73846626 C-37.67946987 64.86145253 -44.79578281 71.98187443 -51.91455078 79.09985352 C-58.55107223 85.73577227 -65.18197436 92.37726996 -71.81031394 99.02136034 C-77.50710753 104.73120863 -83.20772858 110.4372162 -88.91137338 116.1402207 C-92.31580286 119.54439493 -95.71865295 122.95011247 -99.11766815 126.35969353 C-102.30783107 129.55950449 -105.50271514 132.75452344 -108.70135307 135.94586182 C-109.87579257 137.11925191 -111.04851587 138.29436256 -112.21941566 139.47128487 C-113.81397326 141.07351408 -115.41452481 142.66950154 -117.01678467 144.26402283 C-117.91197186 145.15975478 -118.80715904 146.05548674 -119.72947311 146.97836208 C-123.36912379 150.21904417 -126.94801533 150.44878424 -131.640625 150.42578125 C-135.73934118 149.68611227 -138.32939373 147.06801792 -141 144 C-142.13557238 141.72885524 -142.23084318 140.27706381 -142.3125 137.75 C-142.34988281 137.00234375 -142.38726562 136.2546875 -142.42578125 135.484375 C-141.44570384 129.76575819 -136.80392595 125.55325996 -132.84510803 121.59114075 C-132.08573249 120.82708523 -132.08573249 120.82708523 -131.31101602 120.04759425 C-129.6261945 118.35484339 -127.93437283 116.66927487 -126.24243164 114.98364258 C-125.02788037 113.76637923 -123.81375454 112.54869126 -122.60002136 111.33061218 C-119.31130493 108.03279626 -116.01631543 104.74131622 -112.71987462 101.45122361 C-109.26788764 98.00430807 -105.82079201 94.55250647 -102.37290955 91.10148621 C-96.58366115 85.308602 -90.79021476 79.51994131 -84.99438477 73.73364258 C-78.29572246 67.0458692 -71.60430244 60.35091446 -64.91658884 53.65219384 C-59.17069084 47.89721815 -53.42090228 42.14615134 -47.66784757 36.39832991 C-44.23338418 32.96698289 -40.80028246 29.53430282 -37.37068367 26.09809303 C-34.14701065 22.86864003 -30.91847916 19.64412401 -27.68614388 16.42334175 C-26.50126941 15.24111015 -25.31809056 14.05717632 -24.13674545 12.871418 C-22.52304007 11.25224121 -20.90328969 9.63936046 -19.28187561 8.02790833 C-17.92495401 6.6721178 -17.92495401 6.6721178 -16.54061985 5.28893757 C-11.37458018 0.63466303 -6.92152703 -1.50005791 0 0 Z " fill="#030303" transform="translate(195,54)"/>
<path d="M0 0 C3.96351222 2.09393099 6.60415908 4.2321818 9 8 C9.92535432 11.94281406 10.10656619 16.21039146 7.92146301 19.74427795 C7.41088852 20.2928093 6.90031403 20.84134064 6.37426758 21.40649414 C5.41576401 22.43941086 5.41576401 22.43941086 4.43789673 23.49319458 C-1.20015646 29.29061091 -6.89020876 35.03259604 -12.61328125 40.74609375 C-14.03352715 42.16701411 -15.45362465 43.58808282 -16.87358093 45.0092926 C-19.83475395 47.97193302 -22.79771107 50.93277415 -25.76196289 53.89233398 C-29.56635112 57.6909941 -33.36619014 61.49416837 -37.16473103 65.29867458 C-40.08905389 68.22660231 -43.01574346 71.15215493 -45.94316673 74.0769825 C-47.34617758 75.47932549 -48.74844383 76.88241385 -50.14995766 78.28625298 C-52.10057877 80.23940272 -54.05435739 82.18933703 -56.0090332 84.13842773 C-56.5892926 84.72071136 -57.169552 85.302995 -57.76739502 85.90292358 C-61.61619689 89.73129212 -63.41167026 91.15283365 -68.8125 91.25 C-73.04415503 91.18902514 -75.7578874 90.94737509 -79 88 C-81.65435414 84.06423352 -82.35173503 80.74447891 -82.49609375 76.125 C-81.09764941 70.1348132 -75.87340081 65.58547036 -71.65844727 61.3996582 C-71.03191254 60.76961884 -70.40537781 60.13957947 -69.75985718 59.490448 C-67.70035456 57.4221875 -65.63367557 55.3612766 -63.56640625 53.30078125 C-62.12649281 51.85951963 -60.6868763 50.41796131 -59.24754333 48.97612 C-56.23557099 45.96120458 -53.22002489 42.94992235 -50.2019043 39.94116211 C-46.33710296 36.08776497 -42.48136351 32.22544493 -38.62825108 28.36036396 C-35.65930811 25.38418916 -32.68561211 22.41280027 -29.71046257 19.44283104 C-28.28685704 18.0205578 -26.86473053 16.59680253 -25.44412422 15.17153358 C-23.45786934 13.1801907 -21.46530015 11.19538642 -19.47094727 9.2121582 C-18.88740982 8.6245723 -18.30387238 8.03698639 -17.70265198 7.43159485 C-12.4107914 2.19419329 -7.87088577 -1.40441295 0 0 Z " fill="#030303" transform="translate(207,126)"/>
</svg>
